<svg xmlns="http://www.w3.org/2000/svg" id="Layer_1" data-name="Layer 1" viewBox="0 0 500 500">
  <defs>
    <style>
      .cls-2 {
        fill: #c5f74f;
        stroke-width: 0px;
      }
    </style>
  </defs>
  <g transform="translate(105, -220)">
    <path class="cls-2" d="M66.81,460.92h0c6.19,3.46,8.35,11.25,4.82,17.4l-41.38,72.21c-3.53,6.15-11.4,8.34-17.59,4.88h0c-6.19-3.46-8.35-11.25-4.82-17.4l41.38-72.21c3.53-6.15,11.4-8.34,17.59-4.88Z"/>
    <path class="cls-2" d="M156.01,405.55h0c6.19,3.46,8.35,11.25,4.82,17.4l-41.38,72.21c-3.53,6.15-11.4,8.34-17.59,4.88h0c-6.19-3.46-8.35-11.25-4.82-17.4l41.38-72.21c3.53-6.15,11.4-8.34,17.59-4.88Z"/>
    <path class="cls-2" d="M293.26,405.55h0c6.19,3.46,8.35,11.25,4.82,17.4l-41.38,72.21c-3.53,6.15-11.4,8.34-17.59,4.88h0c-6.19-3.46-8.35-11.25-4.82-17.4l41.38-72.21c3.53-6.15,11.4-8.34,17.59-4.88Z"/>
    <path class="cls-2" d="M204.03,460.92h0c6.19,3.46,8.35,11.25,4.82,17.4l-41.38,72.21c-3.53,6.15-11.4,8.34-17.59,4.88h0c-6.19-3.46-8.35-11.25-4.82-17.4l41.38-72.21c3.53-6.15,11.4-8.34,17.59-4.88Z"/>
  </g>
</svg>